<svg id="click-cloud-service" xmlns="http://www.w3.org/2000/svg" width="33.62" height="46.772" viewBox="0 0 33.62 46.772">
  <path id="Path_472" data-name="Path 472" d="M31.256,60.994h-.008a.735.735,0,1,0,.008,0Z" transform="translate(-14.792 -16.415)" fill="#fff"/>
  <path id="Path_473" data-name="Path 473" d="M38.922,27.776a2.535,2.535,0,0,0-1.486.485,2.533,2.533,0,0,0-3.655-.73,2.52,2.52,0,0,0-3.264-.96V20.1a2.558,2.558,0,1,0-5.117,0v9.886a3.616,3.616,0,0,0-2.193-.749.73.73,0,0,0-.731.731v8.037a.383.383,0,0,0,.009.042.694.694,0,0,0,.029.143.713.713,0,0,0,.046.138c.007.013.007.027.014.04l2.3,4.023h-.2a.73.73,0,0,0-.731.731v2.924a.731.731,0,1,0,1.462,0V43.853H40.021v2.193a.731.731,0,1,0,1.462,0V43.122a.73.73,0,0,0-.731-.731h-.279l.933-1.865c0-.007,0-.015.006-.022a.812.812,0,0,0,.038-.139.712.712,0,0,0,.029-.143c0-.008,0-.015,0-.022V30.333c0-.005,0-.01,0-.015A2.561,2.561,0,0,0,38.922,27.776ZM26.556,42.391l-2.617-4.58V30.834A2.19,2.19,0,0,1,25.4,32.891v2.193a.731.731,0,0,0,1.462,0V20.1a1.1,1.1,0,1,1,2.193,0V30.7a.731.731,0,0,0,1.462,0V28.87a1.1,1.1,0,0,1,2.192,0s0,0,0,0V30.7a.731.731,0,1,0,1.462,0V29.6a1.1,1.1,0,0,1,2.192,0s0,0,0,0V30.7a.731.731,0,1,0,1.462,0v-.366a1.1,1.1,0,1,1,2.191,0s0,0,0,.007v9.686l-1.183,2.365H26.556ZM21.375,16.807H33.8A5.12,5.12,0,0,0,38.917,11.7V9.5a5.146,5.146,0,0,0-4.234-5.038A7.305,7.305,0,0,0,20.788,5.9a4.384,4.384,0,0,0-3.8,4.337v2.194A4.386,4.386,0,0,0,21.375,16.807ZM33.8,15.345H21.375a2.913,2.913,0,0,1-2.58-1.58,4.352,4.352,0,0,0,2.58.847H33.8a5.1,5.1,0,0,0,3.143-1.086A3.643,3.643,0,0,1,33.8,15.345ZM20.668,7.412a.721.721,0,0,0,.711.632.73.73,0,0,0,.731-.731,5.845,5.845,0,1,1,11.689,0,.731.731,0,1,0,1.462,0,7.264,7.264,0,0,0-.105-1.184A3.64,3.64,0,0,1,33.8,13.152H21.375a2.912,2.912,0,0,1-.707-5.739Z" transform="translate(-11.152 -0.005)" fill="#fff"/>
  <path id="Path_474" data-name="Path 474" d="M39.729,23.783a8.05,8.05,0,0,0,8.04-8.041.731.731,0,0,0-1.462,0,6.586,6.586,0,0,1-6.578,6.579.731.731,0,1,0,0,1.462Z" transform="translate(-17.073 -4.043)" fill="#fff"/>
  <path id="Path_475" data-name="Path 475" d="M42.968,15.011a.73.73,0,0,0-.731.731,9.513,9.513,0,0,1-9.5,9.5.731.731,0,0,0,0,1.462A10.977,10.977,0,0,0,43.7,15.742.73.73,0,0,0,42.968,15.011ZM20.312,22.305a5.854,5.854,0,0,1-5.848-5.847.731.731,0,1,0-1.462,0,7.317,7.317,0,0,0,7.31,7.309.731.731,0,0,0,0-1.462Z" transform="translate(-10.078 -4.043)" fill="#fff"/>
  <path id="Path_476" data-name="Path 476" d="M19.236,23.072A8.781,8.781,0,0,1,10.464,14.3.731.731,0,0,0,9,14.3,10.245,10.245,0,0,0,19.236,24.534a.731.731,0,0,0,0-1.462Zm4.427-12.427h1.417v1.466a.731.731,0,1,0,1.462,0V10.645h1.417a.731.731,0,1,0,0-1.462H26.541V7.726a.731.731,0,0,0-1.462,0V9.183H23.662a.731.731,0,0,0,0,1.462Z" transform="translate(-9.002 -1.886)" fill="#fff"/>
</svg>
