<svg id="fast-time" xmlns="http://www.w3.org/2000/svg" width="47.582" height="39.54" viewBox="0 0 47.582 39.54">
  <path id="Path_462" data-name="Path 462" d="M376.362,297.351a15.963,15.963,0,1,1,11.32-4.675A16,16,0,0,1,376.362,297.351Zm0-30.094a14.135,14.135,0,1,0,14.179,14.135A14.173,14.173,0,0,0,376.362,267.257Z" transform="translate(-345.447 -257.811)" fill="#fff"/>
  <path id="Path_463" data-name="Path 463" d="M403.628,327.356a.912.912,0,0,1-.792-1.368l1.293-2.23a.914.914,0,0,1,1.585.912l-1.293,2.23A.916.916,0,0,1,403.628,327.356Zm11.757-20.3a.912.912,0,0,1-.792-1.368l1.289-2.227a.914.914,0,0,1,1.585.912l-1.29,2.227A.916.916,0,0,1,415.385,307.053Zm-16.531,15.539a.912.912,0,0,1-.458-1.7l2.233-1.288a.913.913,0,1,1,.915,1.58l-2.233,1.287A.911.911,0,0,1,398.854,322.593Zm20.364-11.72a.912.912,0,0,1-.458-1.7l2.23-1.285a.913.913,0,1,1,.915,1.58l-2.23,1.286A.918.918,0,0,1,419.218,310.873Zm-19.533,5.217h-2.579a.912.912,0,1,1,0-1.824h2.579a.912.912,0,1,1,0,1.824Zm23.514,0h-2.579a.912.912,0,1,1,0-1.824H423.2a.912.912,0,1,1,0,1.824Zm-22.113-5.217a.918.918,0,0,1-.457-.122l-2.233-1.286a.913.913,0,1,1,.915-1.58l2.234,1.285a.912.912,0,0,1-.457,1.7Zm20.364,11.72a.911.911,0,0,1-.458-.123l-2.23-1.285a.913.913,0,1,1,.915-1.58l2.23,1.286a.912.912,0,0,1-.458,1.7Zm-16.53-15.539a.916.916,0,0,1-.793-.456l-1.29-2.227a.914.914,0,0,1,1.585-.912l1.29,2.227a.912.912,0,0,1-.792,1.368Zm11.757,20.3a.915.915,0,0,1-.793-.456l-1.288-2.23a.914.914,0,0,1,1.585-.912l1.288,2.23a.912.912,0,0,1-.792,1.368Zm-6.524-21.7a.914.914,0,0,1-.915-.912v-2.571a.915.915,0,0,1,1.83,0v2.571A.914.914,0,0,1,410.152,305.655Zm0,23.441a.914.914,0,0,1-.915-.912v-2.571a.915.915,0,0,1,1.83,0v2.571A.914.914,0,0,1,410.152,329.1Zm6.751-12.989H411.9a.912.912,0,1,1,0-1.824H416.9a.912.912,0,1,1,0,1.824Zm-6.751-1.756a.914.914,0,0,1-.915-.912v-5.605a.915.915,0,0,1,1.83,0v5.605A.914.914,0,0,1,410.152,314.351Z" transform="translate(-379.237 -291.597)" fill="#fff"/>
  <path id="Path_464" data-name="Path 464" d="M393.04,301.35A2.652,2.652,0,1,1,395.7,298.7,2.656,2.656,0,0,1,393.04,301.35Zm0-3.478a.827.827,0,1,0,.829.827.829.829,0,0,0-.829-.827Zm-10.7-8.895a.912.912,0,0,1-.646-.267l-3.386-3.368a.914.914,0,1,1,1.293-1.291l3.386,3.368a.912.912,0,0,1-.646,1.558Z" transform="translate(-362.125 -275.118)" fill="#fff"/>
  <path id="Path_465" data-name="Path 465" d="M349.412,190.73a.912.912,0,0,1-.648-1.556l3.379-3.375a.914.914,0,1,1,1.3,1.288l-3.379,3.375A.911.911,0,0,1,349.412,190.73Zm15.759-2.758a.914.914,0,0,1-.915-.912l0-4.767a.914.914,0,0,1,.915-.912h0a.914.914,0,0,1,.915.912l.005,4.768a.914.914,0,0,1-.915.912Zm10.694,4.4a.912.912,0,0,1-.647-1.558l3.382-3.372a.914.914,0,0,1,1.294,1.29l-3.383,3.372A.917.917,0,0,1,375.865,192.375Z" transform="translate(-334.271 -178.552)" fill="#fff"/>
  <path id="Path_466" data-name="Path 466" d="M146.427,143.907a.916.916,0,0,1-.647-.265l-3.382-3.372a.914.914,0,1,1,1.294-1.29l3.383,3.372a.912.912,0,0,1-.647,1.557Zm-12.242-7.485h-7.057a.914.914,0,0,1-.915-.912v-2.827a.914.914,0,0,1,.915-.912h7.057a.914.914,0,0,1,.915.912v2.827A.914.914,0,0,1,134.186,136.422Zm-6.142-1.824h5.227v-1h-5.227ZM112.8,146.113h-7.59a.912.912,0,1,1,0-1.824h7.59a.912.912,0,1,1,0,1.824Zm-2.254,5.075h-7.59a.912.912,0,1,1,0-1.824h7.59a.912.912,0,1,1,0,1.824Zm.985,5.075H100.675a.912.912,0,1,1,0-1.824h10.859a.912.912,0,1,1,0,1.824Zm-.985,5.075h-7.59a.912.912,0,1,1,0-1.824h7.59a.912.912,0,1,1,0,1.824Zm2.254,5.075h-7.59a.912.912,0,1,1,0-1.824h7.59a.912.912,0,1,1,0,1.824Z" transform="translate(-99.76 -131.77)" fill="#fff"/>
</svg>
