<svg xmlns="http://www.w3.org/2000/svg" width="40.059" height="42.505" viewBox="0 0 40.059 42.505">
  <g id="idea" transform="translate(1 1)">
    <path id="Path_455" data-name="Path 455" d="M56.863,252c.577,2.315-.318,5.165-2.324,8.017a30.658,30.658,0,0,1-10.2,8.74,34.921,34.921,0,0,1-4.242,1.989c-7.539,2.928-14.419,2.388-16.394-1.684-1.2-2.467-.361-5.754,1.952-9.045a28.171,28.171,0,0,1,6.69-6.532,9.582,9.582,0,0,0,2.348,2.759s0,0,0,0c.592.6,1.077,1.145,1.475,1.637" transform="translate(-21.978 -232.14)" fill="none" stroke="#fff" stroke-linecap="round" stroke-linejoin="round" stroke-miterlimit="10" stroke-width="2"/>
    <path id="Path_456" data-name="Path 456" d="M200.266,208.906a3.119,3.119,0,0,1,.37,1.166v.616h4.489v-.616s0-2.056,4.485-6.153a8.738,8.738,0,0,0,1.058-1.492,10.531,10.531,0,0,0,1.273-5.173c0-.335-.015-.667-.047-.994a10.954,10.954,0,0,1,4.557.956m-12.2,19.465h-2.886m5.157-1.89H199.3m7.214-2.051H199.3m1.332-2.051H199.3m7.213,0h-1.392" transform="translate(-184.62 -180.956)" fill="none" stroke="#fff" stroke-linecap="round" stroke-linejoin="round" stroke-miterlimit="10" stroke-width="2"/>
    <path id="Path_457" data-name="Path 457" d="M130.283,107.668q-.414-.462-.848-.9s0,0,0,0A9.584,9.584,0,0,1,127.084,104a10.161,10.161,0,0,1-1.322-5.047c0-.336.015-.667.047-1a9.1,9.1,0,0,1,18.18,0c.032.327.047.659.047.994a10.532,10.532,0,0,1-1.273,5.173,8.74,8.74,0,0,1-1.058,1.492c-4.483,4.1-4.485,6.149-4.485,6.153v.616h-4.489v-.616a3.119,3.119,0,0,0-.37-1.166" transform="translate(-116.715 -82.659)" fill="none" stroke="#fff" stroke-linecap="round" stroke-linejoin="round" stroke-miterlimit="10" stroke-width="2"/>
    <path id="Path_458" data-name="Path 458" d="M221.175,372.808v4.055l-3.634.047-.855.011v-4.113Z" transform="translate(-200.67 -343.075)" fill="none" stroke="#fff" stroke-linecap="round" stroke-linejoin="round" stroke-miterlimit="10" stroke-width="2"/>
    <path id="Path_459" data-name="Path 459" d="M56.307,257.649c-1.975,4.072-8.671,4.492-16.21,1.564a34.924,34.924,0,0,1-4.242-1.989,30.656,30.656,0,0,1-10.2-8.74c-2.314-3.29-3.15-6.577-1.952-9.044" transform="translate(-21.978 -220.607)" fill="none" stroke="#fff" stroke-linecap="round" stroke-linejoin="round" stroke-miterlimit="10" stroke-width="2"/>
    <path id="Path_460" data-name="Path 460" d="M132.36,208.891a3.119,3.119,0,0,1,.37,1.166v.616h4.489v-.616s0-2.056,4.485-6.153a8.739,8.739,0,0,0,1.058-1.493,28.063,28.063,0,0,1,6.513,6.406,17.612,17.612,0,0,1,1.2,1.95m-19.565-4.083h0m-5.1-10.441q-.048.5-.047,1a10.161,10.161,0,0,0,1.322,5.047,9.582,9.582,0,0,0,2.348,2.759s0,0,0,0c.592.6,1.077,1.145,1.475,1.637" transform="translate(-116.714 -180.94)" fill="none" stroke="#fff" stroke-linecap="round" stroke-linejoin="round" stroke-miterlimit="10" stroke-width="2"/>
    <ellipse id="Ellipse_1" data-name="Ellipse 1" cx="2.596" cy="2.768" rx="2.596" ry="2.768" transform="translate(0 13.497)" fill="none" stroke="#fff" stroke-linecap="round" stroke-linejoin="round" stroke-miterlimit="10" stroke-width="2"/>
    <ellipse id="Ellipse_2" data-name="Ellipse 2" cx="2.596" cy="2.768" rx="2.596" ry="2.768" transform="translate(32.868 31.784)" fill="none" stroke="#fff" stroke-linecap="round" stroke-linejoin="round" stroke-miterlimit="10" stroke-width="2"/>
    <path id="Path_461" data-name="Path 461" d="M118.348,12.678V9m8.279,7.355,2.07-2.207M110.07,16.355,108,14.149" transform="translate(-100.315 -9)" fill="none" stroke="#fff" stroke-linecap="round" stroke-linejoin="round" stroke-miterlimit="10" stroke-width="2"/>
  </g>
</svg>
