<svg xmlns="http://www.w3.org/2000/svg" width="44" height="45.048" viewBox="0 0 44 45.048">
  <path id="network" d="M49.014,38.324a5.362,5.362,0,0,0,1.938-4.086,5.238,5.238,0,1,0-10.476,0,5.362,5.362,0,0,0,1.938,4.086A6.25,6.25,0,0,0,39.429,43.2l-8.381-6.338v-6.81h4.19A1.051,1.051,0,0,0,36.286,29V21.667A6.294,6.294,0,0,0,33.3,16.324a5.362,5.362,0,0,0,1.938-4.086,5.238,5.238,0,1,0-10.476,0A5.362,5.362,0,0,0,26.7,16.324a6.294,6.294,0,0,0-2.986,5.343V29a1.051,1.051,0,0,0,1.048,1.048h4.19v6.81l-8.381,6.286a6.335,6.335,0,0,0-2.986-4.871,5.172,5.172,0,0,0,1.938-4.033,5.238,5.238,0,0,0-10.476,0,5.362,5.362,0,0,0,1.938,4.086A6.294,6.294,0,0,0,8,43.667V51a1.051,1.051,0,0,0,1.048,1.048H19.524A1.051,1.051,0,0,0,20.571,51V45.762L30,38.691l9.429,7.071V51a1.051,1.051,0,0,0,1.048,1.048H50.952A1.051,1.051,0,0,0,52,51V43.667A6.294,6.294,0,0,0,49.014,38.324ZM14.286,31.1a3.143,3.143,0,1,1-3.143,3.143A3.152,3.152,0,0,1,14.286,31.1Zm4.19,18.857H10.1V43.667a4.19,4.19,0,0,1,8.381,0ZM30,9.1a3.143,3.143,0,1,1-3.143,3.143A3.152,3.152,0,0,1,30,9.1ZM25.81,27.952V21.667a4.19,4.19,0,0,1,8.381,0v6.286Zm19.9,3.143a3.143,3.143,0,1,1-3.143,3.143A3.152,3.152,0,0,1,45.714,31.1ZM49.9,49.952H41.524V43.667a4.19,4.19,0,0,1,8.381,0Z" transform="translate(-8 -7)" fill="#fff"/>
</svg>
