<svg xmlns="http://www.w3.org/2000/svg" width="11.487" height="13.785" viewBox="0 0 11.487 13.785">
  <path id="copy_1_" data-name="copy (1)" d="M13.338,13.389V6.021a2.872,2.872,0,0,0-2.683-2.866l-.189-.006H5.4A1.724,1.724,0,0,1,7.021,2h4.021a3.446,3.446,0,0,1,3.446,3.446v6.318A1.724,1.724,0,0,1,13.338,13.389Zm-8.615,2.4A1.723,1.723,0,0,1,3,14.062V6.021A1.723,1.723,0,0,1,4.723,4.3h5.744A1.723,1.723,0,0,1,12.19,6.021v8.041a1.723,1.723,0,0,1-1.723,1.723Zm0-1.149h5.744a.574.574,0,0,0,.574-.574V6.021a.574.574,0,0,0-.574-.574H4.723a.574.574,0,0,0-.574.574v8.041A.574.574,0,0,0,4.723,14.636Z" transform="translate(-3 -2)" fill="#747474"/>
</svg>
