<svg xmlns="http://www.w3.org/2000/svg" width="10.571" height="13.785" viewBox="0 0 10.571 13.785">
  <path id="delete" d="M16.315,8.246l-.222,6.72a2.214,2.214,0,0,1-2.22,2.141H9.654a2.214,2.214,0,0,1-2.22-2.139L7.212,8.246a.555.555,0,0,1,1.11-.037l.222,6.722A1.11,1.11,0,0,0,9.654,16h4.218a1.11,1.11,0,0,0,1.11-1.07L15.2,8.209a.555.555,0,1,1,1.11.037Zm.734-2.236a.555.555,0,0,1-.555.555H7.033a.555.555,0,0,1,0-1.11H8.754a.708.708,0,0,0,.707-.637,1.66,1.66,0,0,1,1.656-1.5H12.41a1.66,1.66,0,0,1,1.656,1.5.708.708,0,0,0,.707.637h1.721a.555.555,0,0,1,.555.555Zm-6.625-.555H13.1a1.832,1.832,0,0,1-.142-.524.555.555,0,0,0-.552-.5H11.117a.555.555,0,0,0-.552.5,1.832,1.832,0,0,1-.142.524Zm.559,8.41V9.138a.555.555,0,0,0-1.11,0v4.728a.555.555,0,0,0,1.11,0Zm2.672,0V9.138a.555.555,0,1,0-1.11,0v4.728a.555.555,0,0,0,1.11,0Z" transform="translate(-6.478 -3.322)" fill="#747474"/>
</svg>
