<svg xmlns="http://www.w3.org/2000/svg" width="13.78" height="13.785" viewBox="0 0 13.78 13.785">
  <path id="pen_1_" data-name="pen (1)" d="M17.423,3.755a2.2,2.2,0,0,0-3.1,0L4.859,13.221a.621.621,0,0,0-.167.335l-.4,2.656a.6.6,0,0,0,.589.689H4.97l2.652-.4a.621.621,0,0,0,.335-.167l9.466-9.482A2.2,2.2,0,0,0,17.423,3.755ZM7.252,15.336l-1.661.251.251-1.661,7.774-7.77,1.406,1.406Zm9.327-9.327L15.588,7l-1.41-1.41.992-.992a1,1,0,0,1,1.41,1.41Z" transform="translate(-4.282 -3.116)" fill="#747474"/>
</svg>
