<svg xmlns="http://www.w3.org/2000/svg" width="39.954" height="39.954" viewBox="0 0 39.954 39.954">
  <g id="play_4_" data-name="play (4)" transform="translate(-7.9 -7.9)">
    <path id="Path_11063" data-name="Path 11063" d="M7.9,27.877A19.977,19.977,0,1,1,27.877,47.854,19.979,19.979,0,0,1,7.9,27.877Z" fill="#878787"/>
    <path id="Path_11064" data-name="Path 11064" d="M108.847,80.6A19.973,19.973,0,0,1,80.6,108.847Z" transform="translate(-66.846 -66.846)" fill="#313131"/>
    <path id="Path_11065" data-name="Path 11065" d="M172.5,192.788l-9.888-9.888-11.659,1.329L143.9,195.147l13.181,13.181A20.005,20.005,0,0,0,172.5,192.788Z" transform="translate(-125.049 -160.909)" fill="#141414"/>
    <path id="videos" d="M13.744,8A5.74,5.74,0,0,0,8,13.744v6.565a5.74,5.74,0,0,0,5.744,5.744h6.565a5.74,5.74,0,0,0,5.744-5.744V13.744A5.74,5.74,0,0,0,20.309,8Zm0,.821h2.242l1.368,2.051-1.368,2.051H13.28L14.5,11.1a.41.41,0,0,0,0-.455l-1.2-1.8C13.443,8.83,13.592,8.821,13.744,8.821Zm3.229,0h2.706l1.368,2.051-1.368,2.051H16.973L18.188,11.1a.41.41,0,0,0,0-.455L16.973,8.821Zm3.7.018a4.892,4.892,0,0,1,4.482,4.084H20.666L21.881,11.1a.41.41,0,0,0,0-.455l-1.2-1.805ZM12.416,9l1.246,1.867-1.368,2.051h-3.4a4.889,4.889,0,0,1,3.523-3.918Zm-3.6,4.739H25.232v6.565a4.9,4.9,0,0,1-4.923,4.923H13.744a4.9,4.9,0,0,1-4.923-4.923Z" transform="translate(10.851 10.851)" fill="#fff"/>
  </g>
</svg>
