<svg xmlns="http://www.w3.org/2000/svg" width="33.033" height="23.2" viewBox="0 0 33.033 23.2">
  <g id="youtube" transform="translate(-5.368 -13.434)">
    <path id="Path_11070" data-name="Path 11070" d="M35.654,28.866c-3.029-1.619-5.929-3.107-8.893-4.66V33.5c3.119-1.7,6.408-3.249,8.906-4.634Z" transform="translate(-8.282 -4.17)" fill="#fff"/>
    <path id="Path_11071" data-name="Path 11071" d="M35.654,28.866c-3.029-1.619-8.893-4.66-8.893-4.66l7.819,5.255S33.156,30.251,35.654,28.866Z" transform="translate(-8.282 -4.17)" fill="#e8e0e0"/>
    <path id="Path_11072" data-name="Path 11072" d="M19.049,36.605c-6.291-.116-8.44-.22-9.761-.492a4.29,4.29,0,0,1-2.239-1.164A4.714,4.714,0,0,1,5.988,32.9a13.38,13.38,0,0,1-.453-3,71.333,71.333,0,0,1,0-9.735c.2-1.8.3-3.933,1.644-5.178a4.407,4.407,0,0,1,2.2-1.113,121.528,121.528,0,0,1,12.518-.44,121.752,121.752,0,0,1,12.518.44A4.306,4.306,0,0,1,36.991,15.4c1.226,1.928,1.247,4.326,1.372,6.2.051.894.051,5.967,0,6.861-.194,2.964-.349,4.012-.789,5.1a3.76,3.76,0,0,1-.906,1.45,4.342,4.342,0,0,1-2.3,1.178c-5.444.409-10.067.5-15.314.414ZM27.386,24.7c-3.029-1.619-5.929-3.119-8.893-4.673v9.295c3.119-1.7,6.408-3.249,8.906-4.634Z" fill="#cd201f"/>
  </g>
</svg>
