<svg xmlns="http://www.w3.org/2000/svg" width="39.954" height="39.954" viewBox="0 0 39.954 39.954">
  <g id="play_4_" data-name="play (4)" transform="translate(-7.9 -7.9)">
    <path id="Path_11063" data-name="Path 11063" d="M7.9,27.877A19.977,19.977,0,1,1,27.877,47.854,19.979,19.979,0,0,1,7.9,27.877Z" fill="#d42428"/>
    <path id="Path_11064" data-name="Path 11064" d="M108.847,80.6A19.973,19.973,0,0,1,80.6,108.847Z" transform="translate(-66.846 -66.846)" fill="#cc202d"/>
    <path id="Path_11065" data-name="Path 11065" d="M172.5,192.788l-9.888-9.888-11.659,1.329L143.9,195.147l13.181,13.181A20.005,20.005,0,0,0,172.5,192.788Z" transform="translate(-125.049 -160.909)" fill="#ba202e"/>
    <path id="Path_11066" data-name="Path 11066" d="M154.275,173.528a3.024,3.024,0,0,0-3.028-3.028h-14.22A3.029,3.029,0,0,0,134,173.528v8.133a3.031,3.031,0,0,0,3.028,3.036h14.212a3.031,3.031,0,0,0,3.028-3.036v-8.133Zm-12.167,7.5v-7.633l5.789,3.817Z" transform="translate(-115.946 -149.507)" fill="#fff" fill-rule="evenodd"/>
  </g>
</svg>
