<svg xmlns="http://www.w3.org/2000/svg" xmlns:xlink="http://www.w3.org/1999/xlink" width="314" height="324" viewBox="0 0 314 324">
  <defs>
    <clipPath id="clip-path">
      <path id="Rectangle_1489" data-name="Rectangle 1489" d="M0,0H303a11,11,0,0,1,11,11V324a0,0,0,0,1,0,0H0a0,0,0,0,1,0,0V0A0,0,0,0,1,0,0Z" transform="translate(0 0)" fill="#fff" stroke="#707070" stroke-width="1"/>
    </clipPath>
    <filter id="Ellipse_32" x="-73.092" y="93.105" width="311.666" height="312.441" filterUnits="userSpaceOnUse">
      <feOffset dy="3" input="SourceAlpha"/>
      <feGaussianBlur stdDeviation="11" result="blur"/>
      <feFlood flood-opacity="0.149"/>
      <feComposite operator="in" in2="blur"/>
      <feComposite in="SourceGraphic"/>
    </filter>
    <filter id="Path_11061" x="-80" y="124.375" width="211.625" height="211.625" filterUnits="userSpaceOnUse">
      <feOffset dy="3" input="SourceAlpha"/>
      <feGaussianBlur stdDeviation="3" result="blur-2"/>
      <feFlood flood-opacity="0.302"/>
      <feComposite operator="in" in2="blur-2"/>
      <feComposite in="SourceGraphic"/>
    </filter>
  </defs>
  <g id="Mask_Group_7" data-name="Mask Group 7" transform="translate(314 324) rotate(180)" clip-path="url(#clip-path)">
    <g transform="matrix(-1, 0, 0, -1, 314, 324)" filter="url(#Ellipse_32)">
      <ellipse id="Ellipse_32-2" data-name="Ellipse 32" cx="122.833" cy="123.22" rx="122.833" ry="123.22" transform="translate(205.57 369.55) rotate(180)"/>
    </g>
    <g transform="matrix(-1, 0, 0, -1, 314, 324)" filter="url(#Path_11061)">
      <path id="Path_11061-2" data-name="Path 11061" d="M96.812,0A96.812,96.812,0,1,1,0,96.812,96.812,96.812,0,0,1,96.812,0Z" transform="translate(122.62 324) rotate(180)" fill="red"/>
    </g>
  </g>
</svg>
