<svg xmlns="http://www.w3.org/2000/svg" xmlns:xlink="http://www.w3.org/1999/xlink" width="314" height="324" viewBox="0 0 314 324">
  <defs>
    <clipPath id="clip-path">
      <path id="Rectangle_1484" data-name="Rectangle 1484" d="M0,0H303a11,11,0,0,1,11,11V324a0,0,0,0,1,0,0H0a0,0,0,0,1,0,0V0A0,0,0,0,1,0,0Z" fill="#fff" stroke="#707070" stroke-width="1"/>
    </clipPath>
    <filter id="Ellipse_29" x="75.426" y="-75.545" width="311.666" height="312.441" filterUnits="userSpaceOnUse">
      <feOffset dy="3" input="SourceAlpha"/>
      <feGaussianBlur stdDeviation="11" result="blur"/>
      <feFlood flood-opacity="0.149"/>
      <feComposite operator="in" in2="blur"/>
      <feComposite in="SourceGraphic"/>
    </filter>
    <filter id="Path_11055" x="182.375" y="-6" width="211.625" height="211.625" filterUnits="userSpaceOnUse">
      <feOffset dy="3" input="SourceAlpha"/>
      <feGaussianBlur stdDeviation="3" result="blur-2"/>
      <feFlood flood-opacity="0.302"/>
      <feComposite operator="in" in2="blur-2"/>
      <feComposite in="SourceGraphic"/>
    </filter>
  </defs>
  <g id="Mask_Group_3" data-name="Mask Group 3" clip-path="url(#clip-path)">
    <g transform="matrix(1, 0, 0, 1, 0, 0)" filter="url(#Ellipse_29)">
      <ellipse id="Ellipse_29-2" data-name="Ellipse 29" cx="122.833" cy="123.22" rx="122.833" ry="123.22" transform="translate(108.43 -45.55)"/>
    </g>
    <g transform="matrix(1, 0, 0, 1, 0, 0)" filter="url(#Path_11055)">
      <path id="Path_11055-2" data-name="Path 11055" d="M96.812,0A96.812,96.812,0,1,1,0,96.812,96.812,96.812,0,0,1,96.812,0Z" transform="translate(191.38)" fill="red"/>
    </g>
  </g>
</svg>
