<svg id="Layer_2" data-name="Layer 2" xmlns="http://www.w3.org/2000/svg" width="52.101" height="32.845" viewBox="0 0 52.101 32.845">
  <g id="done-all" transform="translate(0 0)">
    <path id="Path_11044" data-name="Path 11044" d="M40.292,6.585a2.736,2.736,0,0,0-3.857.465L17.286,31.67,7.9,20.235a2.736,2.736,0,1,0-4.267,3.419l11.407,14.17a2.876,2.876,0,0,0,4.4-.027L40.866,10.442a2.736,2.736,0,0,0-.574-3.857Zm13.678,0a2.736,2.736,0,0,0-3.857.465L30.964,31.67,29.3,29.618,25.848,34.05,28.857,37.8a2.732,2.732,0,0,0,4.267-.027L54.544,10.415a2.736,2.736,0,0,0-.574-3.83Z" transform="translate(-2.98 -5.994)" fill="red"/>
    <path id="Path_11045" data-name="Path 11045" d="M9.949,17.008l3.529-4.432-.547-.657a2.723,2.723,0,1,0-4.322,3.31Z" transform="translate(5.725 2.321)" fill="red"/>
  </g>
</svg>
