<svg xmlns="http://www.w3.org/2000/svg" width="43.962" height="44.959" viewBox="0 0 43.962 44.959">
  <path id="generate" d="M32.623.832a.745.745,0,0,0-.2.027l-2.968.8A.746.746,0,0,0,29.838,3.1l1.21-.323C25.82,11.4,13.979,21.839,2.1,24.2a.746.746,0,0,0,.292,1.463C14.921,23.174,26.908,12.536,32.355,3.5l.332,1.24a.746.746,0,0,0,1.441-.384l-.793-2.965a.745.745,0,0,0-.712-.553ZM29.814,11.514a.745.745,0,0,0-.745.745V25.816h.69a2.216,2.216,0,0,1,.8.156V13h2.98v6.932L34.6,18.883l-.253.3a1.951,1.951,0,0,1,.687-.593v-6.33a.745.745,0,0,0-.745-.745Zm8.166,7.451a.772.772,0,0,0-.767.684l0-.034-.1.578-.462-.334L36.8,20a.8.8,0,0,0-1.237.039l.085-.1-1.732,1.732a.745.745,0,0,0-.085.1.8.8,0,0,0,.015.919l.326.452-.58.1.122-.015a.736.736,0,0,0-.547.228.744.744,0,0,0-.227.547v2.442a.782.782,0,0,0,.626.76h.025l.586.1-.343.48q-.017.024-.033.049a.781.781,0,0,0,.113.954L35.649,30.5l-.085-.1a.791.791,0,0,0,1.243.031l-.156.152.468-.332.1.577-.006-.052a.74.74,0,0,0,.215.462.753.753,0,0,0,.556.238h2.444a.764.764,0,0,0,.557-.241.736.736,0,0,0,.209-.437l.091-.559.489.347-.151-.143a.8.8,0,0,0,1.234-.04l-.082.1,1.718-1.717a.745.745,0,0,0,.08-.1.791.791,0,0,0-.015-.918l-.331-.465.584-.1-.122.015a.738.738,0,0,0,.548-.229.715.715,0,0,0,.227-.538V24a.782.782,0,0,0-.626-.758H44.8l-.569-.092.334-.475q.016-.023.03-.046a.781.781,0,0,0-.11-.952l-1.718-1.729.082.1a.788.788,0,0,0-1.24-.033l.153-.149-.48.344-.1-.589.006.051a.735.735,0,0,0-.216-.462.753.753,0,0,0-.556-.238H37.98Zm-17.107,1.49a.745.745,0,0,0-.745.745v7.943l1.481-1.481h.009v-5.71H24.6v4.357a1.989,1.989,0,0,1,1.4-.483h.092V21.209a.745.745,0,0,0-.745-.745l-4.471-.009Zm17.714,0h1.231l.2,1.167a.745.745,0,0,0,1.167.483l.96-.685.867.875-.681.969a.745.745,0,0,0,.492,1.165l1.15.183v1.228l-1.17.2a.745.745,0,0,0-.483,1.17l.69.964-.864.864-.979-.693A.745.745,0,0,0,40,28.828l-.183,1.164H38.586l-.2-1.155a.745.745,0,0,0-1.167-.483l-.952.675-.873-.864.687-.961a.745.745,0,0,0-.483-1.17l-1.17-.194V24.608l1.17-.2a.745.745,0,0,0,.48-1.17l-.684-.946.873-.873.946.685a.745.745,0,0,0,1.173-.484l.194-1.167Zm.62,2.533a2.235,2.235,0,1,0,2.232,2.24,2.25,2.25,0,0,0-2.232-2.24Zm0,1.49a.732.732,0,0,1,.742.75.72.72,0,0,1-.742.739.73.73,0,0,1-.748-.739.742.742,0,0,1,.748-.751ZM11.932,26.415a.745.745,0,0,0-.745.745V45.043a.745.745,0,0,0,.745.745H16.4a.745.745,0,0,0,.745-.745V27.16a.745.745,0,0,0-.745-.745ZM26,27.309a.734.734,0,0,0-.787.7l-.253,1.5-1.2-.864a.742.742,0,0,0-.5-.183.75.75,0,0,0-.577.238l-2.663,2.66-.006.015a.738.738,0,0,0-.222.571.717.717,0,0,0,.161.462l.885,1.229-1.532.259.125-.015a.794.794,0,0,0-.791.791v3.763a.771.771,0,0,0,.238.566.753.753,0,0,0,.447.218h.007l1.513.253-.894,1.249a.73.73,0,0,0-.159.465.738.738,0,0,0,.222.571l.009.015,2.667,2.645L22.68,44.4a.742.742,0,0,0,.577.237.73.73,0,0,0,.5-.186l1.2-.849.256,1.495a.749.749,0,0,0,.209.443.777.777,0,0,0,.575.253h3.763a.733.733,0,0,0,.782-.7l.241-1.508,1.237.872a.735.735,0,0,0,.5.185A.76.76,0,0,0,33.1,44.4l2.636-2.638.009-.015a.738.738,0,0,0,.221-.571.726.726,0,0,0-.158-.456l-.9-1.258L36.45,39.2l-.125.015a.745.745,0,0,0,.556-.232.763.763,0,0,0,.235-.559V34.664a.766.766,0,0,0-.241-.565.741.741,0,0,0-.45-.218l-1.5-.241L35.8,32.4a.724.724,0,0,0,.159-.46.738.738,0,0,0-.221-.571h-.006L33.1,28.7a.742.742,0,0,0-.58-.235.72.72,0,0,0-.5.183l.043-.034-1.264.9-.256-1.511a.747.747,0,0,0-.209-.443.77.77,0,0,0-.574-.249H26v-.006Zm-13.319.6h2.98V44.3h-2.98Zm13.912.894h2.575l.362,2.135a.745.745,0,0,0,1.167.483l1.758-1.253,1.815,1.83-1.243,1.764a.745.745,0,0,0,.492,1.164l2.11.341v2.572l-2.138.361A.745.745,0,0,0,33,39.364l1.259,1.761-1.812,1.814-1.785-1.264a.745.745,0,0,0-1.167.492L29.161,44.3H26.589l-.361-2.119a.745.745,0,0,0-1.167-.48l-1.741,1.237-1.828-1.814,1.255-1.761a.745.745,0,0,0-.483-1.167l-2.137-.361V35.261l2.137-.362a.745.745,0,0,0,.483-1.17l-1.255-1.738,1.828-1.83,1.738,1.253a.745.745,0,0,0,1.17-.48l.361-2.135Zm-23.6.6a.745.745,0,0,0-.745.745v14.9a.745.745,0,0,0,.745.745H7.461a.745.745,0,0,0,.745-.745v-14.9a.745.745,0,0,0-.745-.745Zm.745,1.49h2.98V44.3H3.736Zm24.151,1.6a4.063,4.063,0,1,0,4.052,4.076A4.089,4.089,0,0,0,27.887,32.483Zm0,1.49A2.579,2.579,0,1,1,25.3,36.559,2.557,2.557,0,0,1,27.887,33.974Z" transform="translate(-1.499 -0.832)"/>
</svg>
