<svg id="paste-text" xmlns="http://www.w3.org/2000/svg" width="51.021" height="51.021" viewBox="0 0 51.021 51.021">
  <path id="Path_11039" data-name="Path 11039" d="M44.14,50.518H14.378A6.378,6.378,0,0,1,8,44.14V14.378A6.378,6.378,0,0,1,14.378,8H44.14a6.378,6.378,0,0,1,6.378,6.378V44.14A6.378,6.378,0,0,1,44.14,50.518ZM14.378,12.252a2.126,2.126,0,0,0-2.126,2.126V44.14a2.126,2.126,0,0,0,2.126,2.126H44.14a2.126,2.126,0,0,0,2.126-2.126V14.378a2.126,2.126,0,0,0-2.126-2.126Z" transform="translate(0.504 0.504)"/>
  <path id="Path_11040" data-name="Path 11040" d="M14.629,46.518H10.378A6.378,6.378,0,0,1,4,40.14V10.378A6.378,6.378,0,0,1,10.378,4H40.14a6.378,6.378,0,0,1,6.378,6.378v4.252a2.126,2.126,0,1,1-4.252,0V10.378A2.126,2.126,0,0,0,40.14,8.252H10.378a2.126,2.126,0,0,0-2.126,2.126V40.14a2.126,2.126,0,0,0,2.126,2.126h4.252a2.126,2.126,0,0,1,0,4.252Z" transform="translate(-4 -4)"/>
  <path id="Path_11041" data-name="Path 11041" d="M32.133,20.5a2.126,2.126,0,0,1-2.126-2.126V16.252H17.252v2.126a2.126,2.126,0,1,1-4.252,0V14.126A2.126,2.126,0,0,1,15.126,12H32.133a2.126,2.126,0,0,1,2.126,2.126v4.252A2.126,2.126,0,0,1,32.133,20.5Z" transform="translate(6.133 5.007)"/>
  <path id="Path_11042" data-name="Path 11042" d="M19.126,37.511A2.126,2.126,0,0,1,17,35.385V14.126a2.126,2.126,0,0,1,4.252,0V35.385A2.126,2.126,0,0,1,19.126,37.511Z" transform="translate(10.637 5.007)"/>
  <path id="Path_11043" data-name="Path 11043" d="M25.629,26.252h-8.5a2.126,2.126,0,0,1,0-4.252h8.5a2.126,2.126,0,0,1,0,4.252Z" transform="translate(8.385 16.266)"/>
</svg>
