<svg xmlns="http://www.w3.org/2000/svg" width="18.471" height="18.467" viewBox="0 0 18.471 18.467">
  <g id="setting_1_" data-name="setting (1)" transform="translate(-11.21 -11.215)">
    <path id="Path_734" data-name="Path 734" d="M29.411,22.035a.388.388,0,0,0,.269-.37V19.243a.388.388,0,0,0-.27-.37l-2.285-.733a8.05,8.05,0,0,0-.314-.759l1.1-2.143a.388.388,0,0,0-.071-.451l-1.712-1.716A.388.388,0,0,0,25.677,13l-2.143,1.093a6.4,6.4,0,0,0-.768-.321l-.731-2.288a.388.388,0,0,0-.37-.27H19.242a.388.388,0,0,0-.369.269l-.739,2.287a6.457,6.457,0,0,0-.768.318l-2.13-1.1a.389.389,0,0,0-.452.071l-1.716,1.72a.388.388,0,0,0-.071.45l1.086,2.129a6.264,6.264,0,0,0-.316.768l-2.279.734a.388.388,0,0,0-.269.368l-.008,2.422a.388.388,0,0,0,.268.37l2.288.743a7.837,7.837,0,0,0,.317.759l-1.092,2.137a.388.388,0,0,0,.071.45l1.708,1.716a.386.386,0,0,0,.451.072l2.142-1.091a6.809,6.809,0,0,0,.759.318l.743,2.283a.388.388,0,0,0,.369.268h2.422a.388.388,0,0,0,.369-.268l.744-2.284a7.655,7.655,0,0,0,.756-.312l2.139,1.091a.389.389,0,0,0,.451-.071l1.712-1.708a.388.388,0,0,0,.072-.45l-1.09-2.148a6.582,6.582,0,0,0,.316-.76ZM26.027,23.7l1.053,2.074-1.313,1.31L23.7,26.036a.385.385,0,0,0-.355,0,6.794,6.794,0,0,1-1.011.419.388.388,0,0,0-.248.249l-.717,2.2H19.516L18.8,26.7a.387.387,0,0,0-.252-.25,6.165,6.165,0,0,1-1-.421.389.389,0,0,0-.356,0l-2.066,1.052-1.31-1.316,1.052-2.059a.388.388,0,0,0,0-.35,7.157,7.157,0,0,1-.424-1.017.389.389,0,0,0-.249-.25l-2.2-.716.006-1.858,2.2-.709a.389.389,0,0,0,.253-.259,5.454,5.454,0,0,1,.413-1,.388.388,0,0,0,0-.359l-1.048-2.055,1.316-1.32,2.058,1.058a.391.391,0,0,0,.367-.006,5.5,5.5,0,0,1,1.007-.421.387.387,0,0,0,.249-.249l.713-2.2h1.856l.706,2.207a.388.388,0,0,0,.254.252,5.562,5.562,0,0,1,1.005.421.389.389,0,0,0,.362,0l2.07-1.055,1.313,1.316L26.032,17.2a.388.388,0,0,0,0,.357,7.229,7.229,0,0,1,.423,1.017.388.388,0,0,0,.249.245l2.2.706v1.857l-2.2.709a.389.389,0,0,0-.251.25,5.736,5.736,0,0,1-.418,1A.388.388,0,0,0,26.027,23.7Z" transform="translate(0 0)" fill="#0d1b2a"/>
    <path id="Path_735" data-name="Path 735" d="M29.66,25.513a3.7,3.7,0,1,0,3.183,4.152A3.7,3.7,0,0,0,29.66,25.513Zm2.413,4.05a2.928,2.928,0,0,1-3.288,2.515,2.923,2.923,0,1,1,.772-5.795A2.927,2.927,0,0,1,32.073,29.563Z" transform="translate(-8.727 -8.728)" fill="#0d1b2a"/>
  </g>
</svg>
