<svg version="1.2" xmlns="http://www.w3.org/2000/svg" viewBox="0 0 164 582" width="164" height="582">
	<title>top_fig-svg</title>
	<style>
		.s0 { fill: #000000 } 
		.s1 { fill: #ff0000 } 
	</style>
	<g id="Group_13769">
		<path id="Rectangle_891" class="s0" d="m-290.9 206.7c-17.8-28.6-9.1-66.2 19.4-84l165.4-103.4c28.6-17.9 66.2-9.2 84.1 19.4l164.8 263.7c17.9 28.6 9.2 66.2-19.4 84.1l-165.4 103.3c-28.5 17.9-66.2 9.2-84-19.4z"/>
		<path id="Rectangle_965" class="s1" d="m-316.7 279.3c-17.8-28.6-9.1-66.2 19.4-84.1l165.4-103.3c28.6-17.9 66.2-9.2 84 19.4l164.9 263.7c17.8 28.5 9.1 66.2-19.4 84l-165.4 103.4c-28.6 17.8-66.2 9.2-84-19.4z"/>
	</g>
</svg>